<svg xmlns="http://www.w3.org/2000/svg" width="278" height="256" viewBox="0 0 278 256" version="1.1">
	<path d="M 7.635 8.073 L 5 10.145 5 51.573 C 5 91.667, 5.064 93.064, 7 95 C 9.337 97.337, 9.330 97.337, 27.339 95.601 C 46.604 93.743, 45.418 95.422, 45.807 69.479 C 46.091 50.559, 46.258 48.932, 48.016 47.991 C 49.228 47.343, 62.182 47.069, 83.709 47.237 L 117.500 47.500 118 109.200 C 118.360 153.581, 118.821 171.222, 119.644 172.045 C 121.187 173.587, 154.992 170.858, 158.096 168.941 C 159.267 168.218, 159.583 158.065, 160 107.787 L 160.500 47.500 194 47.258 C 219.521 47.073, 228.095 47.318, 230 48.286 L 232.500 49.558 232.769 71.768 L 233.038 93.979 235.533 95.614 C 237.774 97.082, 239.534 97.127, 252.764 96.059 C 263.939 95.157, 268.104 94.437, 270 93.077 L 272.500 91.285 272.761 50.724 L 273.022 10.163 270.376 8.081 L 267.730 6 139 6 C 10.281 6, 10.269 6, 7.635 8.073 M 21 136.193 C 13.592 136.835, 9.764 137.635, 8 138.909 L 5.500 140.715 5.241 194.519 C 5.006 243.520, 5.131 248.487, 6.646 250.162 C 8.245 251.928, 13.413 252, 139.155 252 C 268.667 252, 270.020 251.980, 272 250 C 273.951 248.049, 274 246.667, 274 193.955 L 274 139.909 271.441 137.350 C 269.253 135.162, 268.273 134.873, 264.691 135.359 C 262.386 135.671, 246.550 137.094, 229.500 138.520 C 212.450 139.946, 197.321 141.568, 195.880 142.124 C 191.922 143.651, 191 146.953, 191 159.593 C 191 170.467, 191.133 171.224, 193.455 173.545 C 195.879 175.970, 196.129 176, 213.955 176 L 232 176 232 192.800 C 232 204.533, 231.638 209.962, 230.800 210.800 C 229.210 212.390, 50.898 212.551, 47.934 210.965 C 46.079 209.972, 46 208.512, 46 175.100 C 46 141.377, 45.934 140.186, 43.927 137.635 C 41.580 134.650, 39.967 134.549, 21 136.193" stroke="none" fill="black" fill-rule="evenodd"/>
</svg>